<?xml version="1.0" encoding="UTF-8"?>
<svg id="Layer_1" xmlns="http://www.w3.org/2000/svg" version="1.1" viewBox="0 0 140 40">
  <!-- Generator: Adobe Illustrator 29.5.1, SVG Export Plug-In . SVG Version: 2.1.0 Build 141)  -->
  <path d="M24.64,37.69c-.05-.03-.2-.16-.36-.49-.34-.69-3.71-9.01-6.42-15.71-1.99-4.91-3.83-9.45-4.49-11.03-.37-.84-.71-1.62-1.56-1.62-1.24,0-1.36,1.41-1.41,2.08-.15,1.9-.64,17.95-.64,20.04,0,1.39.16,3.19.62,4.06.63,1.03,1.34,1.51,1.85,1.86.51.34.51.37.51.49.01.07-.13.17-.62.17-.69,0-1.4-.04-2.01-.08-.51-.03-.95-.06-1.28-.06-.45,0-.98.03-1.56.06-.65.04-1.37.08-2.09.08-.36,0-.52-.09-.55-.12.01-.11.26-.29.63-.56.82-.58,2.06-1.47,2.32-3.57.6-5.07,1.09-19.86,1.09-23.85,0-2.05,0-2.66-.09-3.35-.2-2.32-1.45-3.23-2.28-3.83-.55-.4-.61-.48-.61-.63,0-.07,0-.1.01-.12,0,0,0,0,0,0,.03,0,.18-.06.52-.06.32,0,.84.03,1.4.06.72.04,1.51.08,2.08.08,2.34,0,3,.14,3.46.43.3.19.81.67,1.46,1.89.39.72,4.37,10.29,7.01,16.63,1.57,3.77,2.89,6.96,3.32,7.95.35.7.79,1.03,1.36,1.03.31,0,.89-.12,1.3-.95.1-.24.37-.93.78-2.01,1.78-4.65,6.52-17,9.08-22.82.42-.88.83-1.43,1.31-1.75.49-.28,1.45-.41,3.19-.41.34,0,.99-.03,1.66-.07.67-.03,1.36-.07,1.74-.07.2,0,.28.04.29.05,0,0,.02.05.02.15,0,.15-.09.26-.58.68-.72.61-1.81,1.53-2.21,3.58-.19.9-.19,2.19-.19,3.04,0,7.22.89,21.42,1.26,24.09.32,2.35,1.57,3.26,2.4,3.86.4.29.55.42.55.5h0s-.13.12-.65.12c-.71,0-1.7-.04-2.6-.08-.77-.03-1.48-.06-1.89-.06-.76,0-1.47.04-2.16.07-.63.03-1.25.07-1.88.07-.52,0-.75-.11-.79-.15.08-.06.4-.28.62-.42.76-.5,1.92-1.26,2.32-3.09.09-.36.14-.95.14-1.87,0-2.58-.37-12.1-.84-20.05-.07-.75-.21-2.22-1.41-2.22-1.02,0-1.33,0-6.67,13.86-1.02,2.64-1.91,5.02-2.67,7.01-1.16,3.07-1.99,5.28-2.34,6-.26.48-.81,1.04-1.48,1.05Z"/>
  <path d="M72.32,37.55c-.29,0-.76-.01-1.41-.03-1.66-.04-4.43-.11-8.79-.11-5.17,0-8.7.06-11.04.1-1.17.02-2.05.04-2.7.04-.59,0-.76-.13-.77-.13.09-.06.43-.26.66-.4.81-.48,2.04-1.21,2.29-3.01.22-1.56.23-14.76.23-14.89,0-8.19-.03-12.31-.09-12.97-.18-2.32-1.44-3.24-2.27-3.85-.55-.41-.63-.5-.63-.65,0-.06,0-.09,0-.1,0,0,0,0,0,0,.02,0,.19-.08.61-.08s.92.01,1.61.03c1.73.04,4.63.11,10.73.11,5.08,0,7.8-.07,9.26-.11.53-.01.89-.02,1.14-.02.76,0,.79,0,1,1.19.11.51.22,1.38.34,2.3.14,1.06.29,2.25.47,3.23.2.98.29,1.88.29,2.07,0,.1-.02.15-.02.16-.19-.12-.51-.86-.66-1.22l-.17-.39c-2.05-4.98-3.22-6.05-10.88-6.05-4.98,0-7.19.16-7.19,3.87v8.08c0,1.47.34,2.98,2.84,2.98,6.83,0,7.8-.91,8.99-3.73.03-.06.06-.11.1-.15.05.2.11.59.11,1.32v7.11c0,.49-.03.77-.06.93-.11-.11-.24-.35-.4-.71-1.3-2.84-2.25-3.5-8.66-3.5-2.62,0-2.92,1.7-2.92,2.98v10.29c0,3.92,2.32,3.92,7.41,3.92,7.86,0,9.9-1.16,12.1-6.92.21-.52.4-.85.54-1.04.03.16.05.4.05.74,0,.58-.28,2.74-.51,4.47-.2,1.5-.37,2.79-.41,3.38-.02.39-.04.77-1.21.77Z"/>
  <path d="M107.54,37.55c-.5,0-1.22-.03-1.98-.06-.86-.04-1.76-.08-2.42-.08-1.3,0-2.37.06-3.14.1-.42.02-.75.04-.98.04-.31,0-.49-.1-.56-.16.01-.05.05-.12.14-.28.22-.37.55-.94.55-1.96,0-4.31-4.96-10.89-8.07-12.75-2.13-1.17-5.55-1.18-5.58-1.18-2.4,0-3.62.99-3.62,2.95v8.28c0,1.87.68,3.13,2.2,4.07.2.13.44.27.66.4.28.16.7.41.79.54-.04,0-.24.09-.7.09s-1.22-.03-2.01-.06c-.94-.04-1.94-.08-2.67-.08-.9,0-1.87.04-2.72.08-.62.03-1.16.05-1.55.05-.59,0-.76-.13-.77-.13.09-.06.43-.26.66-.4.81-.48,2.04-1.21,2.29-3.01.19-1.36.23-12.09.23-14.89,0-8.19-.03-12.31-.09-12.97-.18-2.32-1.44-3.24-2.27-3.85-.55-.41-.63-.5-.63-.65,0-.06,0-.09,0-.1h0s.19-.08.61-.08c.64,0,1.25.03,1.95.06.92.04,1.95.08,3.32.08s2.58-.04,3.83-.09c1.44-.05,2.93-.11,4.98-.11,5.81,0,12.74,1.61,12.74,9.29,0,4.03-2.72,6.96-8.08,8.7-.99.37-1.09,1.1-1.09,1.39,0,.57.37,1.1,1,1.42,3.83,2.37,5.97,5.89,8.24,9.61l.27.44c1.02,1.69,1.82,3.02,3.39,4.07.27.19.53.35.76.49.27.17.63.39.69.49v.16s-.16.08-.39.08ZM88.25,2.82c-4.74,0-6.38.19-6.38,3.95v9.81c0,2.88,2.8,3.12,6.18,3.12,6.5,0,10.53-3.27,10.53-8.52s-3.86-8.36-10.33-8.36Z"/>
  <path d="M133.31,37.55c-.29,0-.76-.01-1.41-.03-1.66-.04-4.43-.11-8.79-.11-5.17,0-8.7.06-11.04.1-1.17.02-2.05.04-2.7.04-.59,0-.76-.13-.77-.13.09-.06.43-.26.66-.4.81-.48,2.04-1.21,2.29-3.01.19-1.36.23-12.09.23-14.89,0-8.19-.03-12.31-.09-12.97-.18-2.32-1.44-3.24-2.27-3.85-.55-.41-.63-.5-.63-.65,0-.06,0-.09,0-.1h0s.19-.08.61-.08.92.01,1.61.03c1.73.04,4.63.11,10.73.11,5.08,0,7.8-.07,9.26-.11.53-.01.89-.02,1.14-.02.76,0,.79,0,1,1.19.1.51.22,1.37.34,2.29.14,1.06.29,2.26.47,3.24.2.98.29,1.88.29,2.07,0,.1-.02.15-.02.16-.19-.12-.51-.86-.66-1.22l-.17-.39c-2.05-4.98-3.22-6.05-10.88-6.05-4.98,0-7.19.16-7.19,3.87v8.08c0,1.47.34,2.98,2.84,2.98,6.83,0,7.8-.91,8.99-3.73.03-.06.06-.11.1-.15.05.2.11.59.11,1.32v7.11c0,.49-.03.78-.06.94-.11-.11-.24-.35-.4-.71-1.3-2.84-2.25-3.5-8.66-3.5-2.62,0-2.92,1.7-2.92,2.98v10.29c0,3.92,2.32,3.92,7.41,3.92,7.86,0,9.9-1.16,12.1-6.92.21-.52.4-.85.54-1.04.03.16.05.4.05.74,0,.58-.28,2.74-.51,4.48-.2,1.49-.37,2.78-.4,3.37-.02.39-.04.77-1.21.77Z"/>
</svg>