<?xml version="1.0" encoding="UTF-8"?>
<svg id="Layer_1" xmlns="http://www.w3.org/2000/svg" version="1.1" viewBox="0 0 100 100">
  <!-- Generator: Adobe Illustrator 29.5.1, SVG Export Plug-In . SVG Version: 2.1.0 Build 141)  -->
  <path d="M40.57,48.9c-.06-.04-.23-.18-.4-.55-.38-.77-4.15-10.1-7.19-17.59-2.22-5.49-4.33-10.68-5.07-12.47-.41-.95-.79-1.82-1.75-1.82-1.39,0-1.52,1.58-1.59,2.34-.17,2.13-.72,20.17-.72,22.53,0,1.56.18,3.58.7,4.56.71,1.15,1.5,1.7,2.08,2.09.57.39.57.42.57.55,0,.06,0,.09-.01.1h0s-.2.09-.68.09c-.76,0-1.56-.05-2.26-.09-.57-.03-1.07-.06-1.44-.06-.5,0-1.1.03-1.75.07-.73.04-1.55.09-2.35.09-.4,0-.58-.1-.61-.13.01-.13.29-.33.71-.63.92-.66,2.32-1.65,2.61-4.01.67-5.7,1.23-22.32,1.23-26.81,0-2.3,0-2.99-.1-3.76-.22-2.6-1.63-3.63-2.56-4.3-.62-.45-.68-.54-.68-.71,0-.07,0-.11.01-.13,0,0,0,0,0,0,.03,0,.2-.06.59-.06.36,0,.94.03,1.57.07.81.04,1.7.09,2.34.09,2.63,0,3.37.16,3.89.48.34.21.91.76,1.65,2.12.44.81,4.91,11.57,7.87,18.69,1.76,4.24,3.25,7.82,3.74,8.95.39.79.89,1.15,1.53,1.15.35,0,1-.14,1.47-1.06.11-.27.41-1.05.87-2.25,2-5.23,7.33-19.12,10.21-25.66.47-.99.93-1.61,1.47-1.96.55-.32,1.63-.47,3.58-.47.38,0,1.11-.04,1.87-.08.75-.04,1.53-.08,1.95-.08.23,0,.32.05.33.05,0,0,.02.05.02.17,0,.17-.1.29-.66.76-.81.68-2.04,1.72-2.48,4.03-.21,1.01-.21,2.46-.21,3.42,0,2.84.12,6.95.35,11.67-1.55-.01-2.83-.03-3.88-.04-.13-2.71-.27-5.54-.43-8.25-.08-.84-.24-2.49-1.59-2.49-1.15,0-1.5,0-7.5,15.58-1.15,2.97-2.15,5.65-3,7.89-1.3,3.44-2.23,5.93-2.63,6.74-.3.54-.91,1.17-1.66,1.18Z"/>
  <g>
    <path d="M72.76,53.77c-.09-.1-.23-.32-.44-.82-1.46-3.2-2.53-3.94-9.73-3.94-2.63,0-3.18,1.52-3.27,2.87-1.16-.67-2.5-1.18-4.01-1.55v-1.14c0-9.21-.03-13.84-.1-14.58-.2-2.61-1.62-3.64-2.55-4.33-.62-.46-.71-.56-.71-.73,0-.06,0-.1,0-.11,0,0,0,0,0,0,.03,0,.21-.09.68-.09s1.03.01,1.81.03c1.95.05,5.21.12,12.07.12,5.71,0,8.77-.08,10.41-.13.59-.02,1-.03,1.28-.03.85,0,.89,0,1.12,1.34.12.57.24,1.55.38,2.58.15,1.19.33,2.53.53,3.63.23,1.1.32,2.12.32,2.32,0,.11-.02.17-.03.19-.21-.14-.57-.97-.75-1.37l-.19-.44c-2.31-5.6-3.62-6.8-12.23-6.8-5.6,0-8.08.18-8.08,4.35v9.09c0,1.65.38,3.35,3.19,3.35,7.68,0,8.76-1.02,10.11-4.19.03-.06.07-.12.11-.17.06.23.12.67.12,1.49v7.99c0,.57-.04.89-.08,1.07Z"/>
    <path d="M79.51,69.91c-.33,0-.85-.01-1.58-.03-1.86-.05-4.98-.12-9.88-.12-2.85,0-5.25.02-7.36.04.66-.53,1.25-1.11,1.75-1.72,1.14.21,2.73.25,5.2.25,8.83,0,11.12-1.31,13.61-7.78.23-.59.45-.95.6-1.16.03.18.05.45.05.83,0,.66-.32,3.08-.58,5.03-.22,1.68-.41,3.13-.46,3.79-.02.44-.04.87-1.36.87Z"/>
  </g>
  <path d="M68.57,91.81c-.56,0-1.37-.04-2.23-.07-.97-.04-1.98-.08-2.72-.08-1.46,0-2.66.06-3.54.11-.47.03-.84.05-1.1.05-.35,0-.55-.12-.62-.18.01-.06.05-.13.16-.31.25-.42.62-1.05.62-2.21,0-4.84-5.57-12.25-9.07-14.33-2.39-1.31-6.24-1.33-6.28-1.33-2.7,0-4.07,1.12-4.07,3.31v9.31c0,2.1.76,3.51,2.47,4.58.23.15.49.31.74.45.32.18.79.46.89.61-.05,0-.27.1-.79.1s-1.37-.03-2.26-.07c-1.06-.04-2.19-.09-3-.09-1.02,0-2.1.05-3.05.1-.69.03-1.31.06-1.74.06-.67,0-.86-.15-.86-.15.1-.07.49-.3.74-.45.91-.54,2.29-1.36,2.57-3.38.22-1.53.26-13.59.26-16.74,0-9.21-.03-13.84-.1-14.58-.2-2.61-1.61-3.64-2.55-4.33-.62-.46-.71-.56-.71-.73,0-.06,0-.1.01-.11,0,0,0,0,0,0,.03,0,.21-.08.68-.08.71,0,1.41.03,2.19.06,1.03.04,2.2.09,3.73.09s2.9-.05,4.3-.1c1.62-.06,3.3-.12,5.6-.12,6.54,0,14.32,1.81,14.32,10.44,0,4.53-3.05,7.82-9.08,9.78-1.11.42-1.23,1.23-1.23,1.56,0,.63.4,1.21,1.07,1.56,4.38,2.71,6.78,6.66,9.32,10.83l.3.5c1.14,1.89,2.04,3.39,3.82,4.58.3.21.59.39.86.55.3.19.71.44.78.55,0,.13,0,.17,0,.18-.02.02-.18.09-.43.09ZM46.89,52.77c-5.33,0-7.17.22-7.17,4.44v11.03c0,3.24,3.15,3.5,6.95,3.5,7.3,0,11.84-3.67,11.84-9.58s-4.34-9.39-11.62-9.39Z"/>
</svg>